<svg width="44" height="44" viewBox="0 0 44 44" fill="none" xmlns="http://www.w3.org/2000/svg">
<path d="M21.9987 22.0001C27.0613 22.0001 31.1654 17.896 31.1654 12.8334C31.1654 7.7708 27.0613 3.66675 21.9987 3.66675C16.9361 3.66675 12.832 7.7708 12.832 12.8334C12.832 17.896 16.9361 22.0001 21.9987 22.0001Z" stroke="#E68888" stroke-width="3.5" stroke-linecap="round" stroke-linejoin="round"/>
<path d="M35.2176 28.8567L28.7276 35.3468C28.4709 35.6034 28.2326 36.08 28.1776 36.4284L27.8292 38.9033C27.7009 39.8017 28.3243 40.425 29.2226 40.2967L31.6975 39.9483C32.0459 39.8933 32.5409 39.655 32.7793 39.3984L39.2692 32.9084C40.3876 31.7901 40.9192 30.4884 39.2692 28.8384C37.6376 27.2067 36.336 27.7384 35.2176 28.8567Z" stroke="#E68888" stroke-width="3.5" stroke-miterlimit="10" stroke-linecap="round" stroke-linejoin="round"/>
<path d="M34.2812 29.7917C34.8313 31.7717 36.3712 33.3117 38.3512 33.8617" stroke="#E68888" stroke-width="3.5" stroke-miterlimit="10" stroke-linecap="round" stroke-linejoin="round"/>
<path d="M6.25 40.3333C6.25 33.2383 13.3084 27.5 21.9984 27.5C23.905 27.5 25.7383 27.775 27.4433 28.2883" stroke="#E68888" stroke-width="3.5" stroke-linecap="round" stroke-linejoin="round"/>
</svg>
