<svg width="40" height="40" viewBox="0 0 40 40" fill="none" xmlns="http://www.w3.org/2000/svg">
<path d="M2 38V34C2 31.8783 2.84285 29.8434 4.34315 28.3431C5.84344 26.8429 7.87827 26 10 26H18C20.1217 26 22.1566 26.8429 23.6569 28.3431C25.1571 29.8434 26 31.8783 26 34V38M28 2.26C29.7208 2.7006 31.2461 3.7014 32.3353 5.10462C33.4245 6.50784 34.0157 8.23366 34.0157 10.01C34.0157 11.7863 33.4245 13.5122 32.3353 14.9154C31.2461 16.3186 29.7208 17.3194 28 17.76M38 38V34C37.9898 32.2343 37.3958 30.5216 36.3105 29.1288C35.2252 27.736 33.7097 26.7414 32 26.3M6 10C6 12.1217 6.84285 14.1566 8.34315 15.6569C9.84344 17.1571 11.8783 18 14 18C16.1217 18 18.1566 17.1571 19.6569 15.6569C21.1571 14.1566 22 12.1217 22 10C22 7.87827 21.1571 5.84344 19.6569 4.34315C18.1566 2.84285 16.1217 2 14 2C11.8783 2 9.84344 2.84285 8.34315 4.34315C6.84285 5.84344 6 7.87827 6 10Z" stroke="#5082AE" stroke-width="4" stroke-linecap="round" stroke-linejoin="round"/>
</svg>
